<?xml version="1.0" encoding="utf-8"?>
<!-- Generator: Adobe Illustrator 27.5.0, SVG Export Plug-In . SVG Version: 6.00 Build 0)  -->
<svg version="1.1" id="图层_1" xmlns="http://www.w3.org/2000/svg" xmlns:xlink="http://www.w3.org/1999/xlink" x="0px" y="0px"
	 viewBox="0 0 516 308" style="enable-background:new 0 0 516 308;" xml:space="preserve">
<style type="text/css">
	.st0{fill-rule:evenodd;clip-rule:evenodd;fill:url(#SVGID_1_);}
	.st1{fill-rule:evenodd;clip-rule:evenodd;fill:url(#SVGID_00000175315927884882015560000000908981310159871654_);}
	.st2{fill-rule:evenodd;clip-rule:evenodd;fill:url(#SVGID_00000062908523650802773960000010003595108032304258_);}
	.st3{fill-rule:evenodd;clip-rule:evenodd;fill:url(#SVGID_00000034056553116646878090000015291816152974790035_);}
	.st4{fill-rule:evenodd;clip-rule:evenodd;fill:url(#SVGID_00000086673008031561559400000000270767320080983475_);}
</style>
<g>
	<g>
		
			<radialGradient id="SVGID_1_" cx="1883.2252" cy="3368.0361" r="230.9374" gradientTransform="matrix(0 -1 1 0 -2964.8003 2020.5977)" gradientUnits="userSpaceOnUse">
			<stop  offset="0" style="stop-color:#CEFF00"/>
			<stop  offset="1" style="stop-color:#006500"/>
		</radialGradient>
		<path class="st0" d="M488.7,140.7c-3.5,66.8-56.5,121.9-124.9,126.3c-62.6,4-117.9-36.1-135.7-93.3c-2.3-14.3,6.6-17.3,20.1-14.8
			c52.7,10.3,95.4,75,172.2,33.5c-4.9,8.9-10.8,16.4-16.6,21.8C429.4,213.1,477.5,195.8,488.7,140.7L488.7,140.7z"/>
		
			<radialGradient id="SVGID_00000106847849889410104770000005101934120660712879_" cx="1834.7894" cy="3289.844" r="70.2852" gradientTransform="matrix(0 -1 1 0 -2964.8003 2020.5977)" gradientUnits="userSpaceOnUse">
			<stop  offset="0" style="stop-color:#0CA500"/>
			<stop  offset="0.43" style="stop-color:#1A5B00"/>
			<stop  offset="1" style="stop-color:#001B00"/>
		</radialGradient>
		<path style="fill-rule:evenodd;clip-rule:evenodd;fill:url(#SVGID_00000106847849889410104770000005101934120660712879_);" d="
			M229.6,162.5c3-4.5,10.1-5.2,18.7-3.5c52.7,10.3,95.4,75,172.2,33.5c-23.2,19-49,23.4-74,19.7
			C308.1,206.6,247.6,145.4,229.6,162.5L229.6,162.5z"/>
		
			<radialGradient id="SVGID_00000160186866525970062800000017783218051296562561_" cx="1843.0815" cy="3411.1096" r="39.7017" gradientTransform="matrix(0 -1 1 0 -2964.8003 2020.5977)" gradientUnits="userSpaceOnUse">
			<stop  offset="0" style="stop-color:#0CA500"/>
			<stop  offset="0.43" style="stop-color:#1A5B00"/>
			<stop  offset="1" style="stop-color:#001B00"/>
		</radialGradient>
		<path style="fill-rule:evenodd;clip-rule:evenodd;fill:url(#SVGID_00000160186866525970062800000017783218051296562561_);" d="
			M488.7,140.7c-8.9,38-52.7,66.8-79.5,68c-1.6,2.1-3.5,4-5.4,5.6C429.4,213.1,477.5,195.8,488.7,140.7L488.7,140.7z"/>
	</g>
	<g>
		
			<radialGradient id="SVGID_00000003105044810542844410000004082539459428664708_" cx="-2474.4209" cy="699.2776" r="326.6502" gradientTransform="matrix(0 1 -1 0 845.4199 2690.6035)" gradientUnits="userSpaceOnUse">
			<stop  offset="0" style="stop-color:#00C4FF"/>
			<stop  offset="1" style="stop-color:#0014A7"/>
		</radialGradient>
		<path style="fill-rule:evenodd;clip-rule:evenodd;fill:url(#SVGID_00000003105044810542844410000004082539459428664708_);" d="
			M25.2,211.4c5-94.5,79.9-172.4,176.7-178.7c88.5-5.6,166.7,51.1,191.9,131.9c3.3,20.2-9.3,24.5-28.5,20.9
			C290.7,171,230.4,79.5,121.7,138.2c7-12.6,15.2-23.2,23.5-30.8C109.1,109,41.1,133.5,25.2,211.4L25.2,211.4z"/>
		
			<radialGradient id="SVGID_00000173840074547041034910000011016120568760011966_" cx="-2542.9316" cy="588.6765" r="99.4174" gradientTransform="matrix(0 1 -1 0 845.4199 2690.6035)" gradientUnits="userSpaceOnUse">
			<stop  offset="0" style="stop-color:#006EE0"/>
			<stop  offset="0.415" style="stop-color:#0037CC"/>
			<stop  offset="1" style="stop-color:#00121D"/>
		</radialGradient>
		<path style="fill-rule:evenodd;clip-rule:evenodd;fill:url(#SVGID_00000173840074547041034910000011016120568760011966_);" d="
			M391.8,180.6c-4.3,6.3-14.2,7.3-26.5,5C290.7,171,230.4,79.5,121.7,138.2c32.8-26.9,69.3-33.1,104.7-27.8
			C280.8,118.3,366.3,204.8,391.8,180.6L391.8,180.6z"/>
	</g>
</g>
</svg>
